<?xml version="1.0" encoding="UTF-8"?>
<svg xmlns="http://www.w3.org/2000/svg" xmlns:xlink="http://www.w3.org/1999/xlink" viewBox="0 0 2000 2000">
  <defs>
    <style>
      .cls-1 {
        fill: url(#linear-gradient-2);
      }

      .cls-2 {
        fill: none;
        stroke: url(#linear-gradient);
        stroke-miterlimit: 10;
        stroke-width: 21px;
      }

      .cls-3 {
        fill: url(#linear-gradient-3);
      }
    </style>
    <linearGradient id="linear-gradient" x1="173.05" y1="990.39" x2="583.35" y2="990.39" gradientUnits="userSpaceOnUse">
      <stop offset="0" stop-color="#b38c50"/>
      <stop offset=".3" stop-color="#b78d4d"/>
      <stop offset="1" stop-color="#bb8e4b"/>
    </linearGradient>
    <linearGradient id="linear-gradient-2" x1="669.03" y1="1167.97" x2="1688.76" y2="1167.97" gradientUnits="userSpaceOnUse">
      <stop offset="0" stop-color="#bc904c"/>
      <stop offset="1" stop-color="#f9f1a4"/>
    </linearGradient>
    <linearGradient id="linear-gradient-3" x1="829.22" y1="713.31" x2="1647.91" y2="1185.98" gradientUnits="userSpaceOnUse">
      <stop offset="0" stop-color="#bb8e4b"/>
      <stop offset="1" stop-color="#fbf3a6"/>
    </linearGradient>
  </defs>
  <g id="Table_icon" data-name="Table icon">
    <path class="cls-2" d="M211.24,938.12c48.79-29.2,149.04-89.89,221.04-128.87,27.97-13.76,94.93-5.5,109.61,48.15,11.01,50.45,30.73,175.64,30.73,175.64,0,0,5.04,49.99-32.1,73.38-32.56,17.89-127.95,64.2-127.95,64.2,0,0-68.33,24.31-125.66-19.26-45.4-47.69-87.59-98.14-93.1-109.15-10.55-18.8-22.47-77.04,17.43-104.1Z"/>
  </g>
  <g id="Subtitle">
    <path class="cls-1" d="M735.83,1141.82c0,.86-.09,1.5-.28,1.95-.19,.44-.43,.75-.73,.92-.3,.17-.64,.26-1.03,.28-.38,.01-.76,.02-1.13,.02-.97,0-1.85,0-2.63-.02-.79-.01-1.57-.04-2.35-.06-.79-.03-1.61-.05-2.48-.06-.87-.01-1.88-.02-3.02-.02-1.2,0-2.63,.11-4.28,.32-1.66,.21-3.29,.48-4.9,.79-1.61,.31-3.08,.65-4.39,1.01-1.31,.36-2.21,.68-2.7,.96-.23,.14-.44,.35-.64,.62-.2,.27-.37,.57-.51,.9-.14,.33-.26,.66-.36,1.01-.1,.34-.15,.64-.15,.9-.29,3.03-.61,6.02-.96,8.99-.36,2.97-.68,5.92-.98,8.84-.3,2.93-.56,5.82-.77,8.69-.21,2.87-.32,5.71-.32,8.54,0,.49,.06,1.21,.19,2.16,.13,.96,.27,1.93,.43,2.91,.16,.98,.3,1.86,.43,2.63,.13,.77,.19,1.21,.19,1.33,0,.57-.09,1.15-.26,1.73-.17,.58-.41,1.11-.71,1.58-.3,.47-.67,.86-1.11,1.16s-.92,.45-1.43,.45c-.34,0-.71-.1-1.11-.3-.4-.2-.79-.47-1.18-.81-.39-.34-.74-.75-1.05-1.22-.31-.47-.56-.98-.73-1.52-.23-.71-.41-1.53-.56-2.46-.14-.93-.26-1.89-.34-2.89-.08-1-.14-1.99-.17-2.97s-.04-1.88-.04-2.7,0-1.5,.02-2.08c.01-.57,.02-.94,.02-1.11,0-.86,.09-2.21,.26-4.07s.38-3.93,.64-6.23c.26-2.3,.54-4.67,.83-7.11,.3-2.44,.58-4.67,.83-6.7,.26-2.03,.47-3.7,.64-5.01,.17-1.31,.26-1.98,.26-2.01,0-.46-.1-.79-.3-.98-.2-.2-.43-.33-.68-.39-.26-.06-.49-.07-.71-.04-.21,.03-.34,.04-.36,.04-1.08,0-2.48,.1-4.19,.3-1.71,.2-3.54,.42-5.48,.66-1.94,.24-3.92,.46-5.93,.66-2.01,.2-3.87,.3-5.59,.3h-1.2c-.4,0-.81-.04-1.22-.13-.41-.09-.83-.24-1.24-.47-.41-.23-.83-.56-1.26-.98-.03-.29-.05-.66-.06-1.11-.01-.46,.03-.92,.13-1.39,.1-.47,.3-.9,.6-1.28,.3-.39,.75-.65,1.35-.79,1.28-.29,2.75-.51,4.39-.68,1.64-.17,3.31-.31,5.01-.43,1.7-.11,3.35-.23,4.96-.34,1.61-.11,3.05-.26,4.3-.43,.88-.11,1.98-.26,3.3-.43,1.31-.17,2.66-.36,4.04-.56,1.38-.2,2.72-.4,4.02-.6,1.3-.2,2.36-.39,3.19-.56,1.71-.34,3.53-.74,5.46-1.2,1.93-.46,3.87-.89,5.84-1.31,1.97-.41,3.92-.76,5.86-1.03,1.94-.27,3.79-.41,5.56-.41,.2,0,.55,0,1.05,.02,.5,.02,1.06,.05,1.69,.11,.63,.06,1.3,.14,2.01,.26,.71,.11,1.38,.27,2.01,.47,.31,.09,.59,.27,.83,.56,.24,.29,.45,.6,.62,.94,.17,.34,.31,.69,.41,1.03,.1,.34,.15,.63,.15,.86Zm69.13,35.78c0,.31-.02,.68-.06,1.11-.04,.43-.13,.87-.26,1.33-.13,.46-.31,.91-.54,1.35s-.51,.83-.86,1.18c-1.71,1.63-3.49,3.1-5.33,4.43-1.84,1.33-3.67,2.45-5.5,3.38-1.83,.93-3.61,1.65-5.35,2.16-1.74,.51-3.37,.77-4.88,.77-2.08,0-3.82-.39-5.2-1.18-1.38-.78-2.49-1.81-3.32-3.08-.83-1.27-1.41-2.72-1.75-4.37-.34-1.64-.51-3.32-.51-5.03,0-.57,.02-1.23,.06-1.99,.04-.76,.09-1.54,.15-2.35,.06-.81,.11-1.61,.15-2.38,.04-.77,.06-1.47,.06-2.1,0-.88-.06-1.65-.19-2.29-.13-.64-.36-1.09-.71-1.35-.6,.31-1.34,.93-2.23,1.84s-1.86,2.07-2.93,3.47c-1.07,1.4-2.21,3.01-3.42,4.84-1.21,1.83-2.43,3.8-3.66,5.91-.77,1.31-1.57,2.68-2.4,4.11-.83,1.43-1.65,2.82-2.46,4.17s-1.62,2.65-2.42,3.87c-.8,1.23-1.56,2.3-2.27,3.23-.71,.93-1.37,1.66-1.97,2.2-.6,.54-1.1,.81-1.5,.81-.51,0-.94-.04-1.26-.13-.33-.08-.61-.17-.86-.26-.24-.08-.46-.17-.64-.26-.19-.08-.38-.13-.58-.13-.23-.8-.4-1.75-.51-2.87-.11-1.11-.2-2.23-.26-3.36-.06-1.13-.09-2.17-.11-3.12s-.02-1.68-.02-2.16c0-3.82,.28-7.85,.83-12.07,.56-4.22,1.22-8.65,1.99-13.29,.77-4.64,1.57-9.49,2.4-14.55,.83-5.06,1.51-10.36,2.05-15.9,.17-.8,.43-1.46,.77-1.97,.34-.51,.73-.91,1.16-1.2s.86-.48,1.28-.58c.43-.1,.81-.15,1.16-.15,.86,0,1.54,.44,2.05,1.33s.77,2.07,.77,3.55c0,.4-.05,1.01-.15,1.84-.1,.83-.24,1.76-.43,2.8-.19,1.04-.38,2.16-.6,3.34-.21,1.18-.44,2.36-.69,3.53s-.47,2.29-.68,3.36c-.21,1.07-.41,1.99-.58,2.76-.68,3.08-1.3,6.21-1.86,9.39-.56,3.18-1.04,6.16-1.46,8.95-.41,2.78-.74,5.26-.96,7.45-.23,2.18-.34,3.82-.34,4.9v1.2c0,.51,0,1.04,.02,1.58,.01,.54,.04,1.05,.06,1.52s.07,.79,.13,.96c1.06-.8,2.08-1.81,3.06-3.04,.98-1.23,2-2.63,3.04-4.22,1.04-1.58,2.16-3.31,3.36-5.18,1.2-1.87,2.55-3.85,4.07-5.93,.8-1.14,1.75-2.37,2.85-3.68s2.28-2.53,3.53-3.66c1.25-1.13,2.58-2.06,3.96-2.8,1.38-.74,2.76-1.11,4.13-1.11,.63,0,1.13,.53,1.52,1.58,.38,1.06,.58,2.43,.58,4.11,0,.46-.06,1.15-.19,2.08-.13,.93-.26,1.96-.41,3.08-.14,1.13-.28,2.29-.41,3.49-.13,1.2-.19,2.31-.19,3.34,0,.83,.05,1.82,.15,2.97,.1,1.16,.36,2.26,.77,3.32,.41,1.06,1.03,1.95,1.84,2.7,.81,.74,1.95,1.11,3.4,1.11,2.4,0,5.11-.57,8.13-1.71,3.02-1.14,6.22-2.98,9.59-5.52,.34-.26,.66-.52,.96-.79,.3-.27,.57-.52,.81-.75,.24-.23,.46-.42,.66-.58,.2-.16,.36-.24,.47-.24,.03,0,.09,.04,.19,.13,.1,.09,.2,.18,.3,.28,.1,.1,.19,.2,.28,.3,.09,.1,.13,.16,.13,.19Zm41.4,.17c0,1-.37,2.08-1.11,3.25-.74,1.17-1.8,2.48-3.17,3.94-1.57,1.66-3.3,3.19-5.18,4.6-1.88,1.41-3.82,2.64-5.82,3.68-2,1.04-4.02,1.86-6.08,2.46-2.05,.6-4.04,.9-5.95,.9-4.48,0-7.95-1.44-10.4-4.32-2.45-2.88-3.68-7.11-3.68-12.67,0-1.77,.16-3.57,.47-5.42,.31-1.84,.78-3.66,1.39-5.46s1.38-3.54,2.31-5.22c.93-1.68,2-3.25,3.23-4.71,.77-.88,1.63-1.78,2.57-2.7,.94-.91,1.98-1.73,3.12-2.46,1.14-.73,2.39-1.32,3.75-1.78,1.35-.46,2.83-.68,4.43-.68,1.14,0,2.17,.22,3.08,.66s1.68,1.01,2.31,1.69c.63,.69,1.11,1.46,1.43,2.31,.33,.86,.49,1.7,.49,2.53,0,1.74-.47,3.5-1.41,5.29-.94,1.78-2.27,3.58-3.98,5.39-1.71,1.81-3.77,3.62-6.16,5.44-2.4,1.81-5.07,3.62-8,5.42-.4,.23-.8,.48-1.2,.75-.4,.27-.6,.61-.6,1.01,0,.86,.11,1.75,.34,2.7,.23,.94,.64,1.81,1.24,2.59,.6,.79,1.41,1.43,2.42,1.95s2.3,.77,3.87,.77c2,0,4.03-.32,6.1-.96,2.07-.64,4.09-1.53,6.08-2.67,1.98-1.14,3.91-2.5,5.78-4.07,1.87-1.57,3.62-3.27,5.24-5.09,.91-1,1.64-1.5,2.18-1.5,.31,0,.54,.19,.69,.56,.14,.37,.21,.98,.21,1.84Zm-19.86-18.28c0-.31-.08-.6-.26-.86-.17-.26-.38-.47-.62-.64-.24-.17-.5-.31-.77-.41-.27-.1-.51-.15-.71-.15-1.26,0-2.54,.45-3.85,1.35-1.31,.9-2.54,2.15-3.68,3.75-1.14,1.6-2.14,3.5-3,5.69-.86,2.2-1.44,4.58-1.75,7.15,.4-.26,.93-.63,1.58-1.11,.66-.48,1.36-1.02,2.12-1.6,.76-.58,1.51-1.18,2.27-1.78,.76-.6,1.43-1.16,2.03-1.67,1.31-1.11,2.4-2.1,3.25-2.97,.86-.87,1.53-1.67,2.03-2.4,.5-.73,.85-1.44,1.05-2.14,.2-.7,.3-1.43,.3-2.2Zm111.43,1.84c0,1.06-.29,1.86-.86,2.42-.57,.56-1.23,1.05-1.97,1.48-.94,.43-1.99,.81-3.15,1.16-1.16,.34-2.34,.65-3.55,.92-1.21,.27-2.43,.5-3.66,.68-1.23,.19-2.4,.34-3.51,.45-1.2,.11-2.47,.23-3.81,.34-1.34,.11-2.64,.24-3.89,.36-1.26,.13-2.42,.28-3.49,.45-1.07,.17-1.93,.38-2.59,.64-.6,2.6-1.24,5.07-1.91,7.43-.67,2.35-1.23,4.7-1.69,7.04-.11,.54-.26,1.36-.45,2.44-.19,1.08-.36,2.22-.54,3.4-.17,1.18-.32,2.3-.45,3.34-.13,1.04-.19,1.79-.19,2.25,0,1.17,.19,2.05,.56,2.63,.37,.58,.78,1.06,1.22,1.41,.44,.36,.85,.69,1.22,1.01,.37,.31,.56,.78,.56,1.41,0,.4-.19,.78-.58,1.16-.39,.37-.85,.7-1.39,.98s-1.12,.51-1.73,.66c-.61,.16-1.15,.24-1.61,.24-.83,0-1.57-.23-2.23-.68-.66-.46-1.21-1.05-1.67-1.78-.46-.73-.81-1.56-1.07-2.5-.26-.94-.39-1.91-.39-2.91,0-1.31,.11-2.72,.34-4.22s.51-3.03,.86-4.6c.34-1.57,.71-3.17,1.09-4.82,.39-1.64,.75-3.27,1.09-4.9,.14-.69,.29-1.39,.45-2.12s.3-1.41,.43-2.05c.13-.64,.24-1.18,.32-1.61,.09-.43,.13-.68,.13-.77,0-.46-.17-.81-.49-1.05-.33-.24-.72-.36-1.18-.36-.34,0-.86,.03-1.54,.09-.69,.06-1.41,.13-2.16,.21s-1.48,.16-2.16,.21c-.69,.06-1.18,.09-1.5,.09-1.03,0-1.9-.06-2.61-.19-.71-.13-1.29-.36-1.73-.71-.44-.34-.77-.82-.98-1.43-.21-.61-.32-1.41-.32-2.38,0-.4,.19-.71,.56-.94,.37-.23,.82-.39,1.35-.49,.53-.1,1.09-.16,1.69-.17,.6-.01,1.13-.02,1.58-.02,.37,0,.98-.04,1.82-.11,.84-.07,1.73-.15,2.65-.24,.93-.09,1.81-.16,2.65-.24s1.45-.11,1.82-.11c.17,0,.37-.01,.6-.04,.23-.03,.46-.11,.71-.24,.24-.13,.46-.34,.66-.64,.2-.3,.37-.72,.51-1.26,.2-.88,.44-1.92,.73-3.1,.29-1.18,.58-2.4,.88-3.64s.59-2.44,.88-3.6c.29-1.16,.53-2.15,.73-2.97,.26-.8,.48-1.65,.66-2.57,.19-.91,.36-1.83,.51-2.74,.16-.91,.33-1.8,.54-2.65,.2-.86,.46-1.64,.77-2.35,.63-1.48,1.64-2.23,3.04-2.23,2.11,0,3.17,1.17,3.17,3.51,0,1.46-.31,3.12-.94,5.01-1.37,4.34-2.38,7.91-3.04,10.72-.66,2.81-.98,4.7-.98,5.67,0,1.06,.53,1.58,1.58,1.58,1.28,0,2.49-.02,3.62-.06,1.13-.04,2.27-.11,3.42-.21,1.16-.1,2.38-.22,3.66-.36,1.28-.14,2.72-.3,4.32-.47,1.14-.14,2.23-.31,3.27-.51,1.04-.2,2-.39,2.89-.58,.88-.18,1.67-.36,2.35-.54,.68-.17,1.26-.28,1.71-.34,.31-.03,.62-.07,.92-.13,.3-.06,.56-.06,.77-.02,.21,.04,.38,.16,.51,.34,.13,.19,.19,.49,.19,.92Zm49.7,2.05c0,.26-.21,.97-.62,2.14-.41,1.17-1.01,2.59-1.8,4.26-.79,1.67-1.74,3.5-2.87,5.5-1.13,2-2.39,3.94-3.79,5.82-1.71,2.34-3.41,4.38-5.09,6.12s-3.29,3.19-4.82,4.34c-1.53,1.16-2.93,2.03-4.22,2.61-1.28,.58-2.4,.88-3.34,.88-1.57,0-2.84-.22-3.81-.66-.97-.44-1.77-1.11-2.4-2.01-.63-.9-1.13-2.04-1.52-3.42-.39-1.38-.76-3.02-1.13-4.9h-.6c-1.2,1.83-2.5,3.63-3.92,5.42-1.41,1.78-2.88,3.38-4.41,4.79-1.53,1.41-3.1,2.56-4.71,3.45-1.61,.88-3.2,1.33-4.77,1.33-.83,0-1.7-.15-2.61-.45-.91-.3-1.75-.78-2.53-1.43-.77-.66-1.41-1.49-1.93-2.5-.51-1.01-.77-2.23-.77-3.66,0-1.26,.16-2.69,.47-4.3,.31-1.61,.74-3.3,1.28-5.05s1.16-3.52,1.86-5.31,1.44-3.47,2.23-5.07c.79-1.6,1.58-3.05,2.38-4.34,.8-1.3,1.57-2.33,2.31-3.1,.86-.91,1.86-1.84,3.02-2.78,1.16-.94,2.43-1.8,3.83-2.57s2.9-1.41,4.5-1.91c1.6-.5,3.28-.75,5.05-.75,1.43,0,2.5,.46,3.21,1.39,.71,.93,1.21,2.33,1.5,4.22,.03,.17,.13,.37,.32,.6,.18,.23,.38,.49,.6,.77,.21,.29,.41,.58,.58,.88s.26,.61,.26,.92c0,.46-.1,1.02-.3,1.69-.2,.67-.42,1.43-.66,2.27-.24,.84-.46,1.75-.66,2.74-.2,.98-.3,2.02-.3,3.1,0,1.48,.01,3.07,.04,4.75,.03,1.68,.19,3.23,.49,4.64,.3,1.41,.8,2.59,1.5,3.53,.7,.94,1.72,1.41,3.06,1.41,.68,0,1.5-.29,2.46-.86,.96-.57,2.01-1.37,3.17-2.4,1.16-1.03,2.37-2.25,3.64-3.68,1.27-1.43,2.57-3,3.92-4.71,1.54-1.97,2.88-3.92,4.02-5.84,1.14-1.93,2.14-3.64,3-5.14,.86-1.5,1.58-2.71,2.18-3.64,.6-.93,1.11-1.39,1.54-1.39h.04c.48,.03,.8,.17,.94,.43,.14,.26,.21,.58,.21,.98v.43c0,.14-.01,.3-.04,.47Zm-34.8,1.97c0-.28-.11-.61-.32-.96-.21-.36-.49-.7-.81-1.03-.33-.33-.69-.61-1.09-.83-.4-.23-.77-.34-1.11-.34-.88,0-1.71,.14-2.46,.43-.76,.29-1.46,.65-2.12,1.09s-1.26,.95-1.82,1.52c-.56,.57-1.05,1.14-1.48,1.71-1.03,1.31-2.08,2.92-3.15,4.82-1.07,1.9-2.04,3.89-2.91,5.97-.87,2.08-1.58,4.14-2.14,6.16-.56,2.03-.83,3.82-.83,5.39,0,.8,.36,1.48,1.07,2.05,.71,.57,1.67,.86,2.87,.86,.68,0,1.5-.31,2.46-.92s1.95-1.43,3-2.44c1.04-1.01,2.07-2.16,3.08-3.45,1.01-1.28,1.9-2.61,2.67-3.98,1.46-2.57,2.67-5.16,3.64-7.77,.97-2.61,1.46-5.37,1.46-8.28Zm48.29,36.47c-1.63,.94-3.33,1.68-5.11,2.23-1.78,.54-3.62,.81-5.5,.81-.31,0-.79-.13-1.41-.39-.63-.26-1.26-.61-1.88-1.07-.63-.46-1.17-1.01-1.63-1.67-.46-.66-.67-1.37-.64-2.14l.43-2.57c-.31-.11-.61-.2-.9-.26-.29-.06-.55-.13-.79-.21-.24-.09-.45-.21-.62-.36-.17-.16-.3-.39-.39-.71-.11-.48-.18-1.2-.19-2.14-.01-.94,.11-2.31,.36-4.11,.23-1.48,.48-3.13,.75-4.94,.27-1.81,.58-3.74,.92-5.78,.34-2.04,.72-4.17,1.13-6.38,.41-2.21,.85-4.46,1.31-6.74,.37-1.85,.78-3.79,1.24-5.82,.46-2.03,.91-3.98,1.35-5.86,.44-1.88,.88-3.62,1.31-5.22,.43-1.6,.81-2.9,1.16-3.89,.6-1.8,1.15-3.25,1.65-4.34,.5-1.1,.99-1.94,1.48-2.53s1-.98,1.54-1.18,1.13-.3,1.75-.3c1.57,0,2.35,1.44,2.35,4.32,0,1.34-.17,2.75-.49,4.22-.33,1.47-.74,2.97-1.22,4.52-.49,1.54-1.01,3.08-1.56,4.62s-1.08,3.07-1.56,4.58c-.4,1.23-.86,2.65-1.37,4.26s-1.06,3.45-1.65,5.5c-.58,2.05-1.21,4.37-1.86,6.96-.66,2.58-1.33,5.47-2.01,8.67,1.63-2.88,3.5-5.63,5.61-8.24,2.11-2.61,4.27-4.92,6.46-6.91,2.2-2,4.36-3.59,6.49-4.77,2.12-1.18,4.04-1.78,5.76-1.78,1.08,0,2.07,.28,2.95,.83s1.65,1.29,2.29,2.2c.64,.91,1.14,1.95,1.5,3.1,.36,1.16,.54,2.33,.54,3.53,0,.91-.12,1.95-.36,3.1-.24,1.16-.59,2.39-1.05,3.7-.46,1.31-1.02,2.68-1.69,4.11-.67,1.43-1.43,2.87-2.29,4.32,3.25-2.25,6.19-4.56,8.8-6.93,2.61-2.37,4.9-4.71,6.87-7.02,1.97-2.31,3.62-4.55,4.97-6.72,1.34-2.17,2.37-4.17,3.08-5.99,.17-.43,.36-.86,.56-1.28,.2-.43,.41-.81,.64-1.16,.23-.34,.46-.62,.71-.83,.24-.21,.48-.32,.71-.32,.57,0,1.02,.26,1.35,.77,.33,.51,.49,1.18,.49,2.01,0,.23-.06,.61-.19,1.13-.13,.53-.29,1.1-.47,1.71-.19,.61-.37,1.21-.56,1.78-.19,.57-.34,1.01-.45,1.33-.63,1.48-1.43,3.08-2.42,4.79-.98,1.71-2.18,3.48-3.57,5.31s-3,3.67-4.79,5.54-3.81,3.69-6.04,5.46c-1.11,.88-2.48,1.88-4.09,2.97-1.61,1.1-3.3,2.22-5.05,3.36-1.75,1.14-3.5,2.25-5.24,3.32-1.74,1.07-3.3,2.02-4.69,2.85-1.38,.83-2.51,1.49-3.38,1.99-.87,.5-1.31,.73-1.31,.71l-.04-.04Zm10.74-32.96c-1.37,0-2.84,.43-4.41,1.3-1.57,.87-3.16,2.02-4.77,3.45s-3.19,3.07-4.73,4.92c-1.54,1.86-2.95,3.75-4.24,5.69s-2.4,3.86-3.36,5.76-1.65,3.62-2.08,5.16c.4,.83,.92,1.58,1.56,2.25,.64,.67,1.5,1.01,2.59,1.01s2.21-.19,3.47-.58c1.26-.39,2.46-.85,3.62-1.39,1.16-.54,2.2-1.11,3.12-1.69s1.59-1.08,1.99-1.48c.66-.63,1.36-1.43,2.1-2.4,.74-.97,1.48-2.03,2.2-3.17,.73-1.14,1.43-2.34,2.1-3.6,.67-1.25,1.26-2.5,1.75-3.72,.5-1.23,.9-2.4,1.2-3.53,.3-1.13,.45-2.13,.45-3.02,0-.6-.09-1.2-.26-1.8-.17-.6-.39-1.13-.64-1.61-.26-.47-.54-.85-.83-1.13-.3-.29-.58-.43-.83-.43Zm64.08,12.11c0,.26-.19,.64-.58,1.16-.38,.51-.89,1.08-1.52,1.71-.63,.63-1.34,1.28-2.14,1.97-.8,.69-1.6,1.33-2.4,1.93-4.34,3.31-8.15,5.8-11.45,7.47-3.3,1.67-6.24,2.5-8.84,2.5-1.14,0-2.32-.26-3.53-.79-1.21-.53-2.32-1.43-3.32-2.7-1-1.27-1.82-2.95-2.46-5.05-.64-2.1-.96-4.73-.96-7.9,0-1.28,.06-2.72,.17-4.32,.11-1.6,.26-3.27,.45-5.01,.19-1.74,.39-3.52,.62-5.33,.23-1.81,.47-3.59,.73-5.33,.26-1.74,.51-3.39,.77-4.94,.26-1.55,.5-2.96,.73-4.22,.2-1.06,.42-2.15,.66-3.3,.24-1.14,.49-2.28,.75-3.4,.26-1.13,.51-2.2,.75-3.21,.24-1.01,.48-1.92,.71-2.72,.23-.74,.54-1.55,.94-2.42s.86-1.68,1.37-2.44c.51-.76,1.06-1.38,1.65-1.88,.58-.5,1.18-.75,1.78-.75,.66,0,1.18,.08,1.58,.26,.4,.17,.71,.42,.94,.75s.38,.71,.45,1.13c.07,.43,.11,.9,.11,1.41,0,1.17-.23,2.72-.68,4.64-.46,1.93-1.01,3.97-1.65,6.14-.64,2.17-1.29,4.35-1.95,6.55s-1.2,4.15-1.63,5.86c-.14,.66-.3,1.48-.47,2.48-.17,1-.33,2.1-.47,3.32s-.28,2.5-.41,3.85c-.13,1.36-.24,2.7-.34,4.04-.1,1.34-.18,2.65-.24,3.94s-.08,2.47-.08,3.55c0,2.28,.18,4.13,.54,5.54,.36,1.41,.82,2.52,1.39,3.32,.57,.8,1.21,1.33,1.93,1.6,.71,.27,1.43,.41,2.14,.41,1.17,0,2.38-.19,3.64-.56s2.6-.94,4.04-1.71c1.44-.77,3-1.73,4.69-2.89,1.68-1.16,3.54-2.52,5.56-4.09,.54-.43,1.03-.84,1.48-1.24,.44-.4,.83-.76,1.18-1.09,.34-.33,.66-.58,.94-.77,.28-.18,.56-.28,.81-.28,.4,0,.77,.2,1.11,.6,.34,.4,.51,1.13,.51,2.18Zm41.48-3.21c0,1-.37,2.08-1.11,3.25-.74,1.17-1.8,2.48-3.17,3.94-1.57,1.66-3.3,3.19-5.18,4.6-1.88,1.41-3.82,2.64-5.82,3.68-2,1.04-4.02,1.86-6.08,2.46-2.05,.6-4.04,.9-5.95,.9-4.48,0-7.95-1.44-10.4-4.32-2.45-2.88-3.68-7.11-3.68-12.67,0-1.77,.16-3.57,.47-5.42,.31-1.84,.78-3.66,1.39-5.46s1.38-3.54,2.31-5.22c.93-1.68,2-3.25,3.23-4.71,.77-.88,1.63-1.78,2.57-2.7,.94-.91,1.98-1.73,3.12-2.46,1.14-.73,2.39-1.32,3.75-1.78,1.35-.46,2.83-.68,4.43-.68,1.14,0,2.17,.22,3.08,.66s1.68,1.01,2.31,1.69c.63,.69,1.11,1.46,1.43,2.31,.33,.86,.49,1.7,.49,2.53,0,1.74-.47,3.5-1.41,5.29-.94,1.78-2.27,3.58-3.98,5.39-1.71,1.81-3.77,3.62-6.16,5.44-2.4,1.81-5.07,3.62-8,5.42-.4,.23-.8,.48-1.2,.75-.4,.27-.6,.61-.6,1.01,0,.86,.11,1.75,.34,2.7,.23,.94,.64,1.81,1.24,2.59,.6,.79,1.41,1.43,2.42,1.95s2.3,.77,3.87,.77c2,0,4.03-.32,6.1-.96,2.07-.64,4.09-1.53,6.08-2.67,1.98-1.14,3.91-2.5,5.78-4.07,1.87-1.57,3.62-3.27,5.24-5.09,.91-1,1.64-1.5,2.18-1.5,.31,0,.54,.19,.69,.56,.14,.37,.21,.98,.21,1.84Zm-19.86-18.28c0-.31-.08-.6-.26-.86-.17-.26-.38-.47-.62-.64-.24-.17-.5-.31-.77-.41-.27-.1-.51-.15-.71-.15-1.26,0-2.54,.45-3.85,1.35-1.31,.9-2.54,2.15-3.68,3.75-1.14,1.6-2.14,3.5-3,5.69-.86,2.2-1.44,4.58-1.75,7.15,.4-.26,.93-.63,1.58-1.11,.66-.48,1.36-1.02,2.12-1.6,.76-.58,1.51-1.18,2.27-1.78,.76-.6,1.43-1.16,2.03-1.67,1.31-1.11,2.4-2.1,3.25-2.97,.86-.87,1.53-1.67,2.03-2.4,.5-.73,.85-1.44,1.05-2.14,.2-.7,.3-1.43,.3-2.2Zm110.66-9.72c.31,0,.58,.19,.81,.56,.23,.37,.34,.71,.34,1.03,0,.54-.21,1.18-.62,1.9-.41,.73-.98,1.46-1.69,2.21s-1.55,1.46-2.53,2.16-2,1.29-3.08,1.78c-1.57,.68-3.31,1.34-5.22,1.97-1.91,.63-3.93,1.18-6.06,1.67-2.13,.49-4.34,.91-6.63,1.26-2.3,.36-4.6,.62-6.91,.79-.14,0-.29,.27-.45,.81-.16,.54-.32,1.23-.49,2.05-.17,.83-.34,1.75-.49,2.76-.16,1.01-.31,2-.45,2.95-.14,.96-.27,1.82-.39,2.59-.11,.77-.2,1.33-.26,1.67-.26,1.54-.48,2.9-.66,4.09-.19,1.18-.34,2.3-.47,3.34-.13,1.04-.24,2.05-.32,3.02-.09,.97-.14,2-.17,3.08-.03,.6-.04,1.13-.02,1.61,.01,.47,.02,.93,.02,1.39s0,.92-.02,1.39c-.01,.47-.05,1.01-.11,1.6-.03,.17-.21,.41-.54,.73-.33,.31-.71,.62-1.13,.92-.43,.3-.85,.56-1.26,.79-.41,.23-.71,.34-.88,.34-.71,0-1.3-.24-1.75-.71-.46-.47-.81-1.01-1.07-1.61-.26-.6-.43-1.18-.51-1.75-.08-.57-.13-.96-.13-1.16,0-2.31,.16-4.54,.47-6.68,.31-2.14,.69-4.32,1.13-6.53,.44-2.21,.9-4.51,1.37-6.89s.88-4.99,1.22-7.81c-.23-.51-.58-.84-1.05-.99-.47-.14-.95-.21-1.43-.21-.17,0-.34,0-.49,.02-.16,.01-.31,.02-.45,.02s-.51,.02-1.11,.06c-.6,.04-1.31,.09-2.14,.13-.83,.04-1.71,.1-2.63,.17-.93,.07-1.8,.13-2.61,.17-.81,.04-1.52,.09-2.12,.13-.6,.04-.97,.06-1.11,.06-.46,0-.91-.14-1.35-.43s-.83-.62-1.18-1.01c-.34-.39-.62-.78-.83-1.2-.21-.41-.32-.76-.32-1.05,0-.57,.11-1.06,.32-1.48,.21-.41,.49-.75,.81-1.01,.33-.26,.7-.45,1.11-.58,.41-.13,.82-.19,1.22-.19,.43,0,1.06-.01,1.88-.04,.83-.03,1.74-.06,2.74-.11,1-.04,2.04-.09,3.12-.15,1.08-.06,2.1-.13,3.04-.21,.94-.09,1.77-.17,2.48-.26,.71-.09,1.21-.17,1.5-.26,.6-.2,1.23-.83,1.88-1.88,.66-1.05,1.24-2.67,1.75-4.84,.11-.48,.26-1.17,.43-2.05,.17-.88,.36-1.87,.56-2.95,.2-1.08,.4-2.2,.6-3.36,.2-1.16,.38-2.25,.56-3.3,.17-1.04,.31-1.97,.41-2.78,.1-.81,.16-1.42,.19-1.82,0-.37,.15-.78,.45-1.24,.3-.46,.65-.88,1.05-1.26,.4-.39,.8-.71,1.2-.96,.4-.26,.7-.39,.9-.39,.43,0,.84,.14,1.24,.43,.4,.29,.75,.62,1.05,1.01,.3,.39,.54,.78,.71,1.18,.17,.4,.26,.7,.26,.9,0,.14-.04,.46-.11,.96-.07,.5-.17,1.11-.28,1.82-.11,.71-.25,1.48-.41,2.31-.16,.83-.3,1.61-.43,2.35-.13,.74-.25,1.41-.36,1.99s-.2,.99-.26,1.22c-.4,1.74-.74,3.18-1.01,4.32s-.49,2.1-.64,2.87c-.16,.77-.27,1.39-.34,1.86s-.11,.89-.11,1.26c0,.66,.08,1.1,.26,1.33,.17,.23,.46,.36,.86,.38,.11,0,.57-.04,1.37-.13,.8-.09,1.82-.21,3.06-.39,1.24-.17,2.62-.38,4.13-.64,1.51-.26,3.04-.55,4.58-.88,1.54-.33,3.02-.69,4.45-1.09,1.43-.4,2.67-.84,3.72-1.33,1.03-.49,1.98-.96,2.85-1.41,.87-.46,1.64-.87,2.31-1.24,.67-.37,1.23-.66,1.67-.88,.44-.21,.78-.32,1.01-.32Zm72.69,21.14c0,.6-.43,1.54-1.28,2.83-.31,.51-.71,1.08-1.2,1.71-.49,.63-.99,1.26-1.52,1.91-.53,.64-1.05,1.25-1.56,1.82-.51,.57-.97,1.06-1.37,1.46-1.66,1.68-3.41,3.3-5.26,4.84-1.86,1.54-3.77,2.92-5.76,4.13-1.98,1.21-4.04,2.19-6.16,2.93s-4.29,1.13-6.48,1.16c-1.68,0-3.17-.31-4.47-.94-1.3-.63-2.32-1.64-3.06-3.04-.74-1.4-1.3-2.97-1.67-4.71s-.67-3.61-.9-5.61c-.03-.31-.07-.78-.13-1.41-.06-.63-.12-1.32-.19-2.08s-.16-1.53-.28-2.33-.24-1.53-.38-2.18c-.14-.66-.31-1.19-.49-1.61-.19-.41-.39-.62-.62-.62-.88,0-2.1,.59-3.64,1.78-1.54,1.18-3.23,2.74-5.05,4.67-1.83,1.93-3.7,4.1-5.61,6.53-1.91,2.43-3.7,4.89-5.35,7.41-1.46,2.17-2.78,4.34-3.96,6.53-1.18,2.18-2.22,4.09-3.1,5.71-.49,.74-1,1.26-1.54,1.56s-.91,.45-1.11,.45c-.46,0-.92-.11-1.39-.32-.47-.21-.9-.49-1.28-.83-.38-.34-.7-.74-.94-1.18-.24-.44-.36-.88-.36-1.3,0-.37,.06-.98,.19-1.82,.13-.84,.28-1.79,.45-2.85,.17-1.06,.34-2.15,.51-3.27,.17-1.13,.31-2.18,.43-3.15,.2-1.88,.43-3.95,.68-6.21,.26-2.25,.5-4.53,.73-6.83,.23-2.3,.44-4.54,.64-6.74,.2-2.2,.36-4.18,.47-5.95,.03-.57,.07-1.33,.13-2.27,.06-.94,.11-1.98,.17-3.1,.06-1.13,.11-2.32,.17-3.57,.06-1.26,.11-2.48,.17-3.66,.06-1.18,.11-2.3,.15-3.34s.08-1.92,.11-2.63c.03-.8,.08-1.54,.15-2.23,.07-.68,.17-1.36,.3-2.03,.13-.67,.31-1.34,.56-2.01,.24-.67,.55-1.41,.92-2.2,.11-.26,.3-.54,.56-.86,.26-.31,.55-.6,.88-.86s.68-.48,1.07-.66c.38-.19,.78-.28,1.18-.28,.83,0,1.58,.33,2.25,.98,.67,.66,1.01,1.57,1.01,2.74,0,.37-.06,.87-.19,1.5-.13,.63-.28,1.28-.45,1.95-.17,.67-.34,1.31-.49,1.93-.16,.61-.26,1.08-.32,1.39-.23,1.17-.43,2.51-.6,4.02-.17,1.51-.34,3.05-.49,4.62-.16,1.57-.29,3.12-.41,4.64s-.21,2.89-.3,4.09c-.08,1.37-.19,2.65-.32,3.85-.13,1.2-.26,2.39-.39,3.57-.13,1.18-.25,2.38-.36,3.6-.12,1.21-.23,2.52-.34,3.92-.2,2.11-.43,3.97-.68,5.58-.26,1.61-.39,2.99-.39,4.13,0,.17,.09,.37,.28,.6s.35,.34,.49,.34h.17c.26-.31,.58-.78,.98-1.41,.4-.63,.86-1.31,1.37-2.05,.51-.74,1.05-1.52,1.61-2.33,.56-.81,1.11-1.56,1.65-2.25s1.13-1.43,1.78-2.25c.64-.81,1.31-1.63,2.01-2.46,.7-.83,1.41-1.65,2.14-2.48,.73-.83,1.43-1.6,2.12-2.31,.88-.88,1.87-1.81,2.95-2.78,1.08-.97,2.22-1.85,3.4-2.65,1.18-.8,2.38-1.46,3.57-1.97s2.34-.77,3.42-.77c.2,0,.46,.06,.79,.17s.66,.28,.98,.49c.33,.21,.63,.47,.92,.77,.28,.3,.5,.65,.64,1.05,.57,1.54,.98,3.08,1.24,4.62s.49,3.17,.68,4.88c.17,1.46,.36,2.95,.56,4.49s.46,2.94,.77,4.19c.31,1.26,.72,2.28,1.22,3.08,.5,.8,1.13,1.2,1.91,1.2,3.51,0,6.88-.78,10.1-2.35,1.71-.83,3.19-1.63,4.43-2.4s2.4-1.57,3.47-2.4c1.07-.83,2.13-1.74,3.19-2.74s2.28-2.15,3.68-3.47c2.77-2.54,4.38-3.81,4.84-3.81,.43,0,.64,.59,.64,1.75Zm61.04-1.03c0,.34-.04,.75-.13,1.22-.09,.47-.21,.95-.36,1.43-.16,.49-.33,.95-.51,1.39-.19,.44-.38,.79-.58,1.05-.17,.23-.42,.54-.75,.92-.33,.38-.69,.81-1.09,1.26-.4,.46-.83,.93-1.31,1.43-.47,.5-.96,.98-1.48,1.43-1.77,1.63-3.5,3.2-5.2,4.73-1.7,1.53-3.45,2.88-5.24,4.04s-3.67,2.1-5.63,2.8c-1.95,.7-4.07,1.04-6.36,1.01-1.06,0-2.12-.19-3.19-.58-1.07-.39-2.08-.93-3.02-1.65-.94-.71-1.75-1.57-2.44-2.57-.68-1-1.17-2.1-1.46-3.3-.83,.86-1.7,1.75-2.61,2.68-.91,.93-1.86,1.86-2.85,2.8s-2,1.86-3.06,2.74c-1.06,.88-2.14,1.7-3.25,2.44-.63,.4-1.38,.83-2.25,1.28-.87,.46-1.78,.88-2.74,1.26-.96,.39-1.91,.7-2.87,.94-.96,.24-1.82,.36-2.59,.36-1.17,0-2.18-.36-3.02-1.09-.84-.73-1.54-1.62-2.1-2.67s-.97-2.18-1.24-3.38c-.27-1.2-.41-2.27-.41-3.21,0-1.88,.27-3.81,.81-5.78s1.25-3.89,2.12-5.76c.87-1.87,1.84-3.65,2.91-5.33,1.07-1.68,2.12-3.18,3.15-4.49,1.08-1.37,2.37-2.73,3.85-4.09,1.48-1.36,3.02-2.57,4.62-3.64,1.6-1.07,3.17-1.93,4.71-2.59s2.91-.99,4.11-.99h1.91c.67,0,1.33,.04,1.99,.11,.66,.07,1.3,.19,1.93,.34s1.2,.39,1.71,.71c.26,.17,.56,.5,.9,.98s.66,1.03,.96,1.63c.3,.6,.55,1.2,.75,1.8,.2,.6,.3,1.07,.3,1.41,0,.94-.21,2.2-.64,3.77-.46,1.97-.88,3.76-1.26,5.37-.38,1.61-.58,3.27-.58,4.99,0,.97,.16,1.96,.47,2.97,.31,1.01,.76,1.93,1.35,2.76,.58,.83,1.3,1.51,2.14,2.03,.84,.53,1.79,.79,2.85,.79,1.74,0,3.52-.36,5.35-1.09,1.83-.73,3.67-1.73,5.54-3,1.87-1.27,3.73-2.74,5.59-4.41,1.85-1.67,3.68-3.45,5.48-5.33,.14-.17,.39-.46,.75-.88,.36-.41,.73-.83,1.11-1.24,.39-.41,.76-.78,1.13-1.11,.37-.33,.64-.49,.81-.49,.6,0,.9,.59,.9,1.76Zm-38.09-3.55c0-.49-.03-1.08-.09-1.8-.06-.71-.24-1.3-.56-1.75-.31-.46-.7-.68-1.16-.66-.46,.01-.91,.02-1.37,.02-1,0-1.96,.16-2.89,.47-.93,.31-1.83,.75-2.72,1.31-.88,.56-1.73,1.2-2.55,1.93-.81,.73-1.61,1.49-2.38,2.29-.66,.66-1.35,1.47-2.08,2.44-.73,.97-1.44,2.03-2.14,3.19-.7,1.16-1.38,2.37-2.03,3.64s-1.23,2.53-1.71,3.77c-.49,1.24-.87,2.44-1.16,3.6-.29,1.16-.43,2.2-.43,3.15,0,.29,.04,.66,.11,1.13,.07,.47,.18,.93,.34,1.37,.16,.44,.37,.82,.64,1.13,.27,.31,.61,.47,1.01,.47,1.31,0,2.95-.41,4.92-1.24,2.68-1.14,5.12-2.7,7.3-4.69,2.18-1.98,4.04-4.27,5.59-6.87,2.23-4.02,3.34-8.32,3.34-12.88Zm74.31-6.59c0,.83-.16,1.47-.49,1.93-.33,.46-.73,.8-1.2,1.03s-.98,.37-1.52,.43c-.54,.06-1.03,.1-1.46,.13-2.4,.17-4.84,.36-7.34,.58-2.5,.21-4.77,.43-6.83,.64s-3.75,.42-5.07,.62c-1.33,.2-2,.36-2.03,.47-.2,.83-.46,1.85-.77,3.08-.31,1.23-.64,2.55-.98,3.96-.34,1.41-.69,2.87-1.03,4.37-.34,1.5-.65,2.93-.92,4.28-.27,1.36-.49,2.58-.66,3.68s-.26,1.98-.26,2.63c0,.6,.04,1.33,.13,2.18,.08,.86,.29,1.68,.62,2.46,.33,.79,.81,1.45,1.43,1.99,.63,.54,1.48,.81,2.57,.81,.6,0,1.33-.19,2.21-.56,.87-.37,1.82-.88,2.85-1.54,1.03-.66,2.1-1.44,3.21-2.35,1.11-.91,2.21-1.91,3.3-3,.54-.54,1.13-1.06,1.78-1.56,.64-.5,1.33-.75,2.08-.75,1.06,0,1.58,.5,1.58,1.5,0,.51-.09,1.01-.28,1.48s-.43,.94-.73,1.41-.64,.94-1.03,1.41c-.38,.47-.79,.96-1.22,1.48-.29,.37-.71,.85-1.26,1.43-.56,.58-1.23,1.22-2.01,1.91-.79,.68-1.66,1.38-2.61,2.08-.96,.7-1.97,1.33-3.04,1.88s-2.18,1.01-3.34,1.37c-1.16,.36-2.32,.54-3.49,.54-1.68,0-3.09-.24-4.22-.73-1.13-.49-2.05-1.13-2.76-1.93-.71-.8-1.26-1.71-1.65-2.72-.38-1.01-.66-2.03-.83-3.06-.17-1.03-.26-2.03-.28-3.02-.01-.98-.02-1.83-.02-2.55,0-.88,.09-1.93,.28-3.15,.19-1.21,.41-2.5,.66-3.87,.26-1.37,.55-2.76,.88-4.17,.33-1.41,.62-2.76,.88-4.04s.48-2.46,.66-3.53c.18-1.07,.28-1.92,.28-2.55,0-.37-.18-.58-.54-.62-.36-.04-.83-.02-1.43,.06-.6,.09-1.28,.17-2.03,.26-.76,.09-1.53,.06-2.33-.08-.51-.09-1-.21-1.46-.39-.46-.17-.86-.41-1.22-.71s-.64-.68-.86-1.16c-.21-.47-.32-1.06-.32-1.78,0-.88,.24-1.5,.71-1.84s1.03-.51,1.69-.51h10.06c.17-.09,.39-.38,.66-.88,.27-.5,.57-1.14,.9-1.93,.33-.78,.68-1.67,1.05-2.65s.75-2.01,1.13-3.08c.38-1.07,.76-2.15,1.11-3.23,.36-1.08,.69-2.1,1.01-3.04,.49-1.54,1.06-2.64,1.71-3.3,.66-.66,1.48-.98,2.48-.98,.66,0,1.21,.12,1.65,.36,.44,.24,.79,.54,1.05,.9s.44,.73,.56,1.13c.11,.4,.17,.77,.17,1.11,0,.11-.09,.45-.28,1.01s-.42,1.25-.71,2.08c-.29,.83-.61,1.75-.98,2.78-.37,1.03-.75,2.05-1.13,3.08-.38,1.03-.75,2.03-1.09,3-.34,.97-.64,1.81-.9,2.53,2.65-.17,4.9-.34,6.74-.51,1.84-.17,3.42-.32,4.73-.45,1.31-.13,2.43-.24,3.36-.32,.93-.09,1.8-.13,2.63-.13,1.26,0,2.26,.06,3.02,.17,.76,.11,1.34,.28,1.75,.49,.41,.21,.69,.49,.83,.81,.14,.33,.21,.71,.21,1.13Zm31.98-19.69c-.03,1.6-.44,3.91-1.24,6.93-.77,3-1.8,5.62-3.08,7.88-1.26,2.28-2.68,3.42-4.28,3.42-.86,0-1.6-.26-2.23-.77-.63-.51-.94-1.17-.94-1.97,0-.28,.05-.61,.15-.96,.1-.36,.24-.71,.41-1.05,.17-.34,.36-.66,.56-.96s.41-.54,.64-.71c.77-.68,1.41-1.36,1.93-2.03,.51-.67,.93-1.37,1.24-2.1,.31-.73,.54-1.5,.69-2.33,.14-.83,.21-1.74,.21-2.74s-.36-1.9-1.07-2.7c-.71-.91-1.57-1.8-2.57-2.65-1.03-.88-1.54-1.44-1.54-1.67,0-.17,0-.4-.02-.68s-.04-.57-.06-.86c-.03-.28-.05-.56-.06-.83-.01-.27-.02-.49-.02-.66,0-.54,.03-.96,.09-1.24,.11-.34,.71-.73,1.8-1.16,1.03-.46,1.77-.69,2.23-.69,.28,0,.8,.33,1.54,.99,.37,.31,.74,.66,1.11,1.05,.37,.39,.76,.78,1.16,1.18,.8,.83,1.28,1.37,1.46,1.63,.77,1.2,1.27,2.14,1.5,2.83,.29,.66,.43,1.61,.43,2.87Zm38.44,49.69c0,1.46-.26,2.88-.77,4.26-.51,1.38-1.21,2.69-2.08,3.92-.87,1.23-1.87,2.36-3,3.4-1.13,1.04-2.3,1.94-3.51,2.7-1.21,.76-2.43,1.34-3.66,1.75s-2.35,.62-3.38,.62c-1.43,0-2.37-.31-2.83-.94-.46-.63-.68-1.51-.68-2.65,0-1.06,.2-1.86,.6-2.42,.4-.56,.97-1.04,1.71-1.43,.09-.03,.24-.06,.47-.11,.23-.04,.48-.07,.75-.09,.27-.01,.54-.03,.81-.04,.27-.01,.49-.02,.66-.02,.2,0,.48-.04,.86-.13s.77-.21,1.2-.36c.43-.16,.87-.36,1.33-.6s.88-.52,1.28-.83c1.14-.91,1.95-1.93,2.42-3.06,.47-1.13,.71-2.13,.71-3.02,0-1.11-.36-2.15-1.07-3.12-.71-.97-1.61-1.92-2.7-2.85-1.08-.93-2.25-1.85-3.51-2.78-1.26-.93-2.43-1.91-3.51-2.95-1.08-1.04-1.98-2.15-2.7-3.32s-1.07-2.47-1.07-3.9c0-.71,.09-1.47,.28-2.27s.43-1.58,.73-2.35c.3-.77,.64-1.52,1.03-2.25,.39-.73,.79-1.39,1.22-1.99,.68-.97,1.43-1.93,2.25-2.87,.81-.94,1.63-1.78,2.46-2.5,.83-.73,1.64-1.31,2.44-1.75,.8-.44,1.54-.66,2.23-.66,1.94,0,2.91,1.14,2.91,3.42,0,.8-.32,1.73-.96,2.78-.64,1.06-1.41,2.03-2.29,2.91-1.37,1.31-2.57,2.43-3.6,3.36-1.03,.93-1.98,1.88-2.87,2.85,.66,.97,1.37,1.86,2.14,2.65s1.58,1.57,2.42,2.31,1.7,1.47,2.57,2.18c.87,.71,1.73,1.46,2.59,2.23,.8,.74,1.56,1.49,2.29,2.25,.73,.76,1.38,1.54,1.95,2.35,.57,.81,1.03,1.66,1.37,2.55,.34,.88,.51,1.81,.51,2.78Zm110.36-26.37c0,.26-.21,.97-.62,2.14-.41,1.17-1.01,2.59-1.8,4.26-.79,1.67-1.74,3.5-2.87,5.5-1.13,2-2.39,3.94-3.79,5.82-1.71,2.34-3.41,4.38-5.09,6.12-1.68,1.74-3.29,3.19-4.82,4.34-1.53,1.16-2.93,2.03-4.22,2.61-1.28,.58-2.4,.88-3.34,.88-1.57,0-2.84-.22-3.81-.66-.97-.44-1.77-1.11-2.4-2.01-.63-.9-1.13-2.04-1.52-3.42-.38-1.38-.76-3.02-1.13-4.9h-.6c-1.2,1.83-2.5,3.63-3.92,5.42-1.41,1.78-2.88,3.38-4.41,4.79-1.53,1.41-3.1,2.56-4.71,3.45-1.61,.88-3.2,1.33-4.77,1.33-.83,0-1.7-.15-2.61-.45-.91-.3-1.75-.78-2.53-1.43-.77-.66-1.41-1.49-1.93-2.5-.51-1.01-.77-2.23-.77-3.66,0-1.26,.16-2.69,.47-4.3,.31-1.61,.74-3.3,1.28-5.05,.54-1.75,1.16-3.52,1.86-5.31s1.44-3.47,2.23-5.07c.79-1.6,1.58-3.05,2.38-4.34,.8-1.3,1.57-2.33,2.31-3.1,.86-.91,1.86-1.84,3.02-2.78,1.16-.94,2.43-1.8,3.83-2.57,1.4-.77,2.9-1.41,4.49-1.91,1.6-.5,3.28-.75,5.05-.75,1.43,0,2.5,.46,3.21,1.39,.71,.93,1.21,2.33,1.5,4.22,.03,.17,.14,.37,.32,.6s.38,.49,.6,.77c.21,.29,.41,.58,.58,.88,.17,.3,.26,.61,.26,.92,0,.46-.1,1.02-.3,1.69-.2,.67-.42,1.43-.66,2.27s-.46,1.75-.66,2.74c-.2,.98-.3,2.02-.3,3.1,0,1.48,.01,3.07,.04,4.75,.03,1.68,.19,3.23,.49,4.64,.3,1.41,.8,2.59,1.5,3.53,.7,.94,1.72,1.41,3.06,1.41,.68,0,1.5-.29,2.46-.86,.96-.57,2.01-1.37,3.17-2.4,1.16-1.03,2.37-2.25,3.64-3.68,1.27-1.43,2.58-3,3.92-4.71,1.54-1.97,2.88-3.92,4.02-5.84,1.14-1.93,2.14-3.64,3-5.14,.86-1.5,1.58-2.71,2.18-3.64,.6-.93,1.11-1.39,1.54-1.39h.04c.48,.03,.8,.17,.94,.43,.14,.26,.21,.58,.21,.98v.43c0,.14-.01,.3-.04,.47Zm-34.8,1.97c0-.28-.11-.61-.32-.96-.21-.36-.49-.7-.81-1.03-.33-.33-.69-.61-1.09-.83s-.77-.34-1.11-.34c-.88,0-1.71,.14-2.46,.43-.76,.29-1.46,.65-2.12,1.09-.66,.44-1.26,.95-1.82,1.52-.56,.57-1.05,1.14-1.48,1.71-1.03,1.31-2.08,2.92-3.15,4.82-1.07,1.9-2.04,3.89-2.91,5.97-.87,2.08-1.58,4.14-2.14,6.16-.56,2.03-.83,3.82-.83,5.39,0,.8,.36,1.48,1.07,2.05,.71,.57,1.67,.86,2.87,.86,.68,0,1.5-.31,2.46-.92s1.95-1.43,3-2.44c1.04-1.01,2.07-2.16,3.08-3.45,1.01-1.28,1.9-2.61,2.67-3.98,1.46-2.57,2.67-5.16,3.64-7.77,.97-2.61,1.46-5.37,1.46-8.28Zm48.29,36.47c-1.63,.94-3.33,1.68-5.12,2.23s-3.62,.81-5.5,.81c-.31,0-.79-.13-1.41-.39-.63-.26-1.26-.61-1.88-1.07-.63-.46-1.17-1.01-1.63-1.67-.46-.66-.67-1.37-.64-2.14l.43-2.57c-.31-.11-.61-.2-.9-.26-.29-.06-.55-.13-.79-.21-.24-.09-.45-.21-.62-.36-.17-.16-.3-.39-.39-.71-.11-.48-.18-1.2-.19-2.14-.01-.94,.11-2.31,.36-4.11,.23-1.48,.48-3.13,.75-4.94,.27-1.81,.58-3.74,.92-5.78,.34-2.04,.72-4.17,1.13-6.38,.41-2.21,.85-4.46,1.31-6.74,.37-1.85,.79-3.79,1.24-5.82,.46-2.03,.91-3.98,1.35-5.86,.44-1.88,.88-3.62,1.31-5.22,.43-1.6,.81-2.9,1.16-3.89,.6-1.8,1.15-3.25,1.65-4.34,.5-1.1,.99-1.94,1.48-2.53,.48-.58,1-.98,1.54-1.18,.54-.2,1.13-.3,1.75-.3,1.57,0,2.35,1.44,2.35,4.32,0,1.34-.16,2.75-.49,4.22s-.73,2.97-1.22,4.52-1.01,3.08-1.56,4.62c-.56,1.54-1.08,3.07-1.56,4.58-.4,1.23-.86,2.65-1.37,4.26s-1.06,3.45-1.65,5.5c-.59,2.05-1.21,4.37-1.86,6.96-.66,2.58-1.33,5.47-2.01,8.67,1.63-2.88,3.5-5.63,5.61-8.24,2.11-2.61,4.27-4.92,6.46-6.91,2.2-2,4.36-3.59,6.48-4.77,2.13-1.18,4.04-1.78,5.76-1.78,1.08,0,2.07,.28,2.95,.83,.88,.56,1.65,1.29,2.29,2.2,.64,.91,1.14,1.95,1.5,3.1,.36,1.16,.54,2.33,.54,3.53,0,.91-.12,1.95-.36,3.1-.24,1.16-.59,2.39-1.05,3.7s-1.02,2.68-1.69,4.11c-.67,1.43-1.43,2.87-2.29,4.32,3.25-2.25,6.19-4.56,8.8-6.93,2.61-2.37,4.9-4.71,6.87-7.02,1.97-2.31,3.62-4.55,4.96-6.72,1.34-2.17,2.37-4.17,3.08-5.99,.17-.43,.36-.86,.56-1.28,.2-.43,.41-.81,.64-1.16,.23-.34,.46-.62,.71-.83,.24-.21,.48-.32,.71-.32,.57,0,1.02,.26,1.35,.77,.33,.51,.49,1.18,.49,2.01,0,.23-.06,.61-.19,1.13-.13,.53-.29,1.1-.47,1.71-.19,.61-.37,1.21-.56,1.78-.19,.57-.33,1.01-.45,1.33-.63,1.48-1.43,3.08-2.42,4.79-.98,1.71-2.18,3.48-3.57,5.31-1.4,1.83-3,3.67-4.79,5.54s-3.81,3.69-6.04,5.46c-1.11,.88-2.48,1.88-4.09,2.97-1.61,1.1-3.3,2.22-5.05,3.36-1.75,1.14-3.5,2.25-5.24,3.32-1.74,1.07-3.3,2.02-4.69,2.85-1.38,.83-2.51,1.49-3.38,1.99-.87,.5-1.31,.73-1.31,.71l-.04-.04Zm10.74-32.96c-1.37,0-2.84,.43-4.41,1.3-1.57,.87-3.16,2.02-4.77,3.45-1.61,1.43-3.19,3.07-4.73,4.92-1.54,1.86-2.95,3.75-4.24,5.69-1.28,1.94-2.4,3.86-3.36,5.76-.96,1.9-1.65,3.62-2.08,5.16,.4,.83,.92,1.58,1.56,2.25,.64,.67,1.5,1.01,2.59,1.01s2.21-.19,3.47-.58c1.25-.39,2.46-.85,3.62-1.39,1.16-.54,2.2-1.11,3.12-1.69,.93-.58,1.59-1.08,1.99-1.48,.66-.63,1.36-1.43,2.1-2.4,.74-.97,1.48-2.03,2.2-3.17,.73-1.14,1.43-2.34,2.1-3.6,.67-1.25,1.25-2.5,1.75-3.72,.5-1.23,.9-2.4,1.2-3.53,.3-1.13,.45-2.13,.45-3.02,0-.6-.08-1.2-.26-1.8-.17-.6-.38-1.13-.64-1.61-.26-.47-.54-.85-.83-1.13s-.58-.43-.83-.43Zm64.08,12.11c0,.26-.19,.64-.58,1.16-.39,.51-.89,1.08-1.52,1.71s-1.34,1.28-2.14,1.97c-.8,.69-1.6,1.33-2.4,1.93-4.34,3.31-8.15,5.8-11.45,7.47-3.3,1.67-6.24,2.5-8.84,2.5-1.14,0-2.32-.26-3.53-.79-1.21-.53-2.32-1.43-3.32-2.7-1-1.27-1.82-2.95-2.46-5.05-.64-2.1-.96-4.73-.96-7.9,0-1.28,.06-2.72,.17-4.32,.11-1.6,.26-3.27,.45-5.01,.18-1.74,.39-3.52,.62-5.33,.23-1.81,.47-3.59,.73-5.33s.51-3.39,.77-4.94c.26-1.55,.5-2.96,.73-4.22,.2-1.06,.42-2.15,.66-3.3,.24-1.14,.49-2.28,.75-3.4,.26-1.13,.51-2.2,.75-3.21,.24-1.01,.48-1.92,.71-2.72,.23-.74,.54-1.55,.94-2.42s.86-1.68,1.37-2.44c.51-.76,1.06-1.38,1.65-1.88s1.18-.75,1.78-.75c.66,0,1.18,.08,1.58,.26,.4,.17,.71,.42,.94,.75s.38,.71,.45,1.13,.11,.9,.11,1.41c0,1.17-.23,2.72-.68,4.64-.46,1.93-1.01,3.97-1.65,6.14-.64,2.17-1.29,4.35-1.95,6.55-.66,2.2-1.2,4.15-1.63,5.86-.14,.66-.3,1.48-.47,2.48-.17,1-.33,2.1-.47,3.32s-.28,2.5-.41,3.85c-.13,1.36-.24,2.7-.34,4.04-.1,1.34-.18,2.65-.24,3.94-.06,1.28-.09,2.47-.09,3.55,0,2.28,.18,4.13,.54,5.54,.36,1.41,.82,2.52,1.39,3.32,.57,.8,1.21,1.33,1.93,1.6,.71,.27,1.43,.41,2.14,.41,1.17,0,2.38-.19,3.64-.56s2.6-.94,4.04-1.71c1.44-.77,3-1.73,4.69-2.89,1.68-1.16,3.54-2.52,5.56-4.09,.54-.43,1.03-.84,1.48-1.24,.44-.4,.83-.76,1.18-1.09,.34-.33,.66-.58,.94-.77,.29-.18,.56-.28,.81-.28,.4,0,.77,.2,1.11,.6,.34,.4,.51,1.13,.51,2.18Zm41.48-3.21c0,1-.37,2.08-1.11,3.25-.74,1.17-1.8,2.48-3.17,3.94-1.57,1.66-3.3,3.19-5.18,4.6-1.88,1.41-3.82,2.64-5.82,3.68-2,1.04-4.02,1.86-6.08,2.46-2.05,.6-4.04,.9-5.95,.9-4.48,0-7.95-1.44-10.4-4.32-2.45-2.88-3.68-7.11-3.68-12.67,0-1.77,.16-3.57,.47-5.42,.31-1.84,.78-3.66,1.39-5.46,.61-1.8,1.38-3.54,2.31-5.22,.93-1.68,2-3.25,3.23-4.71,.77-.88,1.63-1.78,2.57-2.7,.94-.91,1.98-1.73,3.12-2.46,1.14-.73,2.39-1.32,3.75-1.78,1.36-.46,2.83-.68,4.43-.68,1.14,0,2.17,.22,3.08,.66s1.68,1.01,2.31,1.69c.63,.69,1.11,1.46,1.43,2.31,.33,.86,.49,1.7,.49,2.53,0,1.74-.47,3.5-1.41,5.29-.94,1.78-2.27,3.58-3.98,5.39-1.71,1.81-3.77,3.62-6.16,5.44-2.4,1.81-5.07,3.62-8,5.42-.4,.23-.8,.48-1.2,.75-.4,.27-.6,.61-.6,1.01,0,.86,.11,1.75,.34,2.7,.23,.94,.64,1.81,1.24,2.59,.6,.79,1.41,1.43,2.42,1.95s2.3,.77,3.87,.77c2,0,4.03-.32,6.1-.96,2.07-.64,4.09-1.53,6.08-2.67,1.98-1.14,3.91-2.5,5.78-4.07,1.87-1.57,3.62-3.27,5.24-5.09,.91-1,1.64-1.5,2.18-1.5,.31,0,.54,.19,.68,.56,.14,.37,.21,.98,.21,1.84Zm-19.86-18.28c0-.31-.09-.6-.26-.86-.17-.26-.38-.47-.62-.64-.24-.17-.5-.31-.77-.41-.27-.1-.51-.15-.71-.15-1.26,0-2.54,.45-3.85,1.35-1.31,.9-2.54,2.15-3.68,3.75-1.14,1.6-2.14,3.5-3,5.69-.86,2.2-1.44,4.58-1.75,7.15,.4-.26,.93-.63,1.58-1.11,.66-.48,1.36-1.02,2.12-1.6,.76-.58,1.51-1.18,2.27-1.78,.76-.6,1.43-1.16,2.03-1.67,1.31-1.11,2.4-2.1,3.25-2.97,.86-.87,1.53-1.67,2.03-2.4,.5-.73,.85-1.44,1.05-2.14,.2-.7,.3-1.43,.3-2.2Z"/>
  </g>
  <g id="Text">
    <path class="cls-3" d="M933.11,1071.66h0c-11.01,5.05-24.14,.17-29.18-10.83l-97.08-211.72-63.53,140.12c-5,11.03-18.11,15.96-29.14,10.96h0c-11.03-5-15.96-18.11-10.96-29.14l82.95-182.94c.89-1.97,2.05-3.74,3.4-5.3,2.09-2.69,4.84-4.93,8.13-6.44h0c11.01-5.05,24.14-.17,29.18,10.83l117.06,255.28c5.05,11.01,.17,24.14-10.83,29.18Zm-244.11-40.41c-11.61,0-21.02,9.41-21.02,21.02s9.41,21.02,21.02,21.02,21.02-9.41,21.02-21.02-9.41-21.02-21.02-21.02Zm528.08-42.2c0,44.58-34.12,81.18-77.67,85.15-1.4,.29-2.85,.44-4.34,.44h-117.11c-11.81,0-21.47-9.66-21.47-21.47h0c0-1.92,.28-3.77,.76-5.54-.48-1.77-.76-3.62-.76-5.54v-117.11c0-11.81,9.66-21.47,21.47-21.47h111.75c.31,0,.61-.02,.92-.02,.31,0,.61,.02,.92,.02,23.81,0,43.11-19.3,43.11-43.11s-19.3-43.11-43.11-43.11c-.31,0-.62,.02-.92,.02-.31,0-.61-.02-.92-.02h-111.75c-11.81,0-21.47-9.66-21.47-21.47h0c0-11.81,9.66-21.47,21.47-21.47h117.11c2.43,0,4.76,.43,6.95,1.18,42.29,5.17,75.06,41.18,75.06,84.87,0,25.65-11.3,48.64-29.19,64.32,17.88,15.68,29.19,38.67,29.19,64.32Zm-42.42,0c0-21.84-16.25-39.88-37.32-42.71-.75,.08-1.5,.12-2.27,.12h-95.64v85.24h95.64c.65,0,1.29,.04,1.92,.1,21.24-2.68,37.66-20.79,37.66-42.75Zm264.75,43.8h-80.92c-.4,0-.79-.01-1.18-.03-26.89-.98-48.41-23-48.56-50.1,0-.05,0-.09,0-.14v-77.62h0s0-108.54,0-108.54c0-11.56-9.45-21.01-21.01-21.01h0c-11.56,0-21.01,9.45-21.01,21.01v173.54c0,1.36,.14,2.69,.39,3.98-.26,2.8-.39,5.63-.39,8.5,0,47.29,35.51,86.28,81.33,91.78,1.65,.42,3.37,.67,5.14,.67h86.21c11.56,0,21.02-9.46,21.02-21.02h0c0-11.56-9.46-21.02-21.02-21.02Zm261.11-257.45h-163.88c-11.56,0-21.02,9.46-21.02,21.02h0c0,11.56,9.46,21.02,21.02,21.02h163.88c11.56,0,21.02-9.46,21.02-21.02h0c0-11.56-9.46-21.02-21.02-21.02Zm0,128.09h-163.88c-11.56,0-21.02,9.46-21.02,21.02h0c0,11.56,9.46,21.02,21.02,21.02h163.88c11.56,0,21.02-9.46,21.02-21.02h0c0-11.56-9.46-21.02-21.02-21.02Zm0,128.36h-163.88c-11.56,0-21.02,9.46-21.02,21.02h0c0,11.56,9.46,21.02,21.02,21.02h163.88c11.56,0,21.02-9.46,21.02-21.02h0c0-11.56-9.46-21.02-21.02-21.02Z"/>
  </g>
</svg>